<?xml version="1.0" encoding="UTF-8"?>
<svg xmlns="http://www.w3.org/2000/svg" xmlns:xlink="http://www.w3.org/1999/xlink" width="1012.5pt" height="487.499991pt" viewBox="0 0 1012.5 487.499991" version="1.2">
<defs>
<clipPath id="clip1">
  <path d="M 0.269531 134 L 66 134 L 66 319 L 0.269531 319 Z M 0.269531 134 "/>
</clipPath>
<clipPath id="clip2">
  <path d="M 0.269531 384 L 95 384 L 95 487 L 0.269531 487 Z M 0.269531 384 "/>
</clipPath>
<clipPath id="clip3">
  <path d="M 0.269531 256 L 82 256 L 82 411 L 0.269531 411 Z M 0.269531 256 "/>
</clipPath>
<clipPath id="clip4">
  <path d="M 0.269531 0 L 53 0 L 53 156 L 0.269531 156 Z M 0.269531 0 "/>
</clipPath>
<clipPath id="clip5">
  <path d="M 140 0 L 344.289062 0 L 344.289062 229 L 140 229 Z M 140 0 "/>
</clipPath>
<clipPath id="clip6">
  <path d="M 245 30 L 344.289062 30 L 344.289062 269 L 245 269 Z M 245 30 "/>
</clipPath>
<clipPath id="clip7">
  <path d="M 28 0 L 344.289062 0 L 344.289062 189 L 28 189 Z M 28 0 "/>
</clipPath>
<clipPath id="clip8">
  <path d="M 178 228 L 344.289062 228 L 344.289062 357 L 178 357 Z M 178 228 "/>
</clipPath>
<clipPath id="clip9">
  <path d="M 81 356 L 179 356 L 179 487 L 81 487 Z M 81 356 "/>
</clipPath>
<clipPath id="clip10">
  <path d="M 107 305 L 344.289062 305 L 344.289062 487 L 107 487 Z M 107 305 "/>
</clipPath>
</defs>
<g id="surface1">
<g clip-path="url(#clip1)" clip-rule="nonzero">
<path style=" stroke:none;fill-rule:nonzero;fill:rgb(0%,68.238831%,93.728638%);fill-opacity:0.6471;" d="M 52.453125 155.496094 L -3.835938 134.109375 L -3.835938 318.621094 L 65.167969 256.539062 Z M 52.453125 155.496094 "/>
</g>
<g clip-path="url(#clip2)" clip-rule="nonzero">
<path style=" stroke:none;fill-rule:nonzero;fill:rgb(92.549133%,0%,54.899597%);fill-opacity:0.898;" d="M -3.835938 410.1875 L -3.835938 491.402344 L 94.640625 491.402344 L 81.289062 384.925781 Z M -3.835938 410.1875 "/>
</g>
<g clip-path="url(#clip3)" clip-rule="nonzero">
<path style=" stroke:none;fill-rule:nonzero;fill:rgb(92.549133%,0%,54.899597%);fill-opacity:0.749;" d="M 65.167969 256.539062 L -3.835938 318.621094 L -3.835938 410.1875 L 81.289062 384.925781 Z M 65.167969 256.539062 "/>
</g>
<path style=" stroke:none;fill-rule:nonzero;fill:rgb(92.549133%,0%,54.899597%);fill-opacity:0.498;" d="M 81.289062 384.925781 L 178.316406 356.136719 L 245.066406 228.910156 L 140.292969 188.964844 L 65.167969 256.539062 Z M 81.289062 384.925781 "/>
<path style=" stroke:none;fill-rule:nonzero;fill:rgb(0%,68.238831%,93.728638%);fill-opacity:0.2;" d="M 81.289062 384.925781 L 178.316406 356.136719 L 245.066406 228.910156 L 140.292969 188.964844 L 65.167969 256.539062 Z M 81.289062 384.925781 "/>
<g clip-path="url(#clip4)" clip-rule="nonzero">
<path style=" stroke:none;fill-rule:nonzero;fill:rgb(0%,68.238831%,93.728638%);fill-opacity:0.8;" d="M 28.757812 -33.007812 L -3.835938 -33.007812 L -3.835938 134.109375 L 52.453125 155.496094 Z M 28.757812 -33.007812 "/>
</g>
<path style=" stroke:none;fill-rule:nonzero;fill:rgb(0%,68.238831%,93.728638%);fill-opacity:0.749;" d="M 140.292969 188.964844 L 52.453125 155.496094 L 65.167969 256.539062 Z M 140.292969 188.964844 "/>
<g clip-path="url(#clip5)" clip-rule="nonzero">
<path style=" stroke:none;fill-rule:nonzero;fill:rgb(0%,68.238831%,93.728638%);fill-opacity:0.6;" d="M 245.066406 228.910156 L 349.375 30.058594 L 349.375 0.925781 L 140.292969 188.964844 Z M 245.066406 228.910156 "/>
</g>
<g clip-path="url(#clip6)" clip-rule="nonzero">
<path style=" stroke:none;fill-rule:nonzero;fill:rgb(0%,68.238831%,93.728638%);fill-opacity:0.6;" d="M 349.375 268.679688 L 349.375 30.058594 L 245.066406 228.910156 Z M 349.375 268.679688 "/>
<path style=" stroke:none;fill-rule:nonzero;fill:rgb(92.549133%,0%,54.899597%);fill-opacity:0.2;" d="M 349.375 268.679688 L 349.375 30.058594 L 245.066406 228.910156 Z M 349.375 268.679688 "/>
</g>
<g clip-path="url(#clip7)" clip-rule="nonzero">
<path style=" stroke:none;fill-rule:nonzero;fill:rgb(0%,68.238831%,93.728638%);fill-opacity:0.698;" d="M 28.757812 -33.007812 L 52.453125 155.496094 L 140.292969 188.964844 L 349.375 0.925781 L 349.375 -33.007812 Z M 28.757812 -33.007812 "/>
</g>
<g clip-path="url(#clip8)" clip-rule="nonzero">
<path style=" stroke:none;fill-rule:nonzero;fill:rgb(0%,68.238831%,93.728638%);fill-opacity:0.698;" d="M 178.316406 356.136719 L 349.375 305.441406 L 349.375 268.679688 L 245.066406 228.910156 Z M 178.316406 356.136719 "/>
<path style=" stroke:none;fill-rule:nonzero;fill:rgb(92.549133%,0%,54.899597%);fill-opacity:0.698;" d="M 178.316406 356.136719 L 349.375 305.441406 L 349.375 268.679688 L 245.066406 228.910156 Z M 178.316406 356.136719 "/>
</g>
<g clip-path="url(#clip9)" clip-rule="nonzero">
<path style=" stroke:none;fill-rule:nonzero;fill:rgb(92.549133%,0%,54.899597%);fill-opacity:0.698;" d="M 81.289062 384.925781 L 94.640625 491.402344 L 107.410156 491.402344 L 178.316406 356.136719 Z M 81.289062 384.925781 "/>
</g>
<g clip-path="url(#clip10)" clip-rule="nonzero">
<path style=" stroke:none;fill-rule:nonzero;fill:rgb(92.549133%,0%,54.899597%);fill-opacity:0.8;" d="M 107.410156 491.402344 L 349.375 491.402344 L 349.375 305.441406 L 178.316406 356.136719 Z M 107.410156 491.402344 "/>
</g>
</g>
</svg>
