<?xml version="1.0" encoding="UTF-8"?>
<svg xmlns="http://www.w3.org/2000/svg" xmlns:xlink="http://www.w3.org/1999/xlink" width="1012.5pt" height="487.499991pt" viewBox="0 0 1012.5 487.499991" version="1.2">
<defs>
<clipPath id="clip1">
  <path d="M 0.269531 0 L 1011.730469 0 L 1011.730469 487 L 0.269531 487 Z M 0.269531 0 "/>
</clipPath>
<clipPath id="clip2">
  <path d="M 0.269531 317 L 199 317 L 199 487 L 0.269531 487 Z M 0.269531 317 "/>
</clipPath>
<clipPath id="clip3">
  <path d="M 198 485 L 750 485 L 750 487 L 198 487 Z M 198 485 "/>
</clipPath>
<clipPath id="clip4">
  <path d="M 0.269531 0 L 160 0 L 160 384 L 0.269531 384 Z M 0.269531 0 "/>
</clipPath>
<clipPath id="clip5">
  <path d="M 159 383 L 429 383 L 429 487 L 159 487 Z M 159 383 "/>
</clipPath>
<clipPath id="clip6">
  <path d="M 428 0 L 1011.730469 0 L 1011.730469 487 L 428 487 Z M 428 0 "/>
</clipPath>
<clipPath id="clip7">
  <path d="M 749 0 L 1011.730469 0 L 1011.730469 487 L 749 487 Z M 749 0 "/>
</clipPath>
<clipPath id="clip8">
  <path d="M 87 0 L 1011.730469 0 L 1011.730469 486 L 87 486 Z M 87 0 "/>
</clipPath>
</defs>
<g id="surface1">
<g clip-path="url(#clip1)" clip-rule="nonzero">
<path style=" stroke:none;fill-rule:nonzero;fill:rgb(100%,100%,100%);fill-opacity:1;" d="M 0.269531 0 L 1012.230469 0 L 1012.230469 493.988281 L 0.269531 493.988281 Z M 0.269531 0 "/>
<path style=" stroke:none;fill-rule:nonzero;fill:rgb(100%,100%,100%);fill-opacity:1;" d="M 0.269531 0 L 1012.230469 0 L 1012.230469 487.242188 L 0.269531 487.242188 Z M 0.269531 0 "/>
</g>
<g clip-path="url(#clip2)" clip-rule="nonzero">
<path style=" stroke:none;fill-rule:nonzero;fill:rgb(0%,68.238831%,93.728638%);fill-opacity:0.6471;" d="M 159.929688 383.28125 L -12.285156 317.855469 L -12.285156 882.285156 L 198.824219 692.375 Z M 159.929688 383.28125 "/>
</g>
<g clip-path="url(#clip3)" clip-rule="nonzero">
<path style=" stroke:none;fill-rule:nonzero;fill:rgb(92.549133%,0%,54.899597%);fill-opacity:0.498;" d="M 248.15625 1085.105469 L 545.019531 997.046875 L 749.234375 607.851562 L 428.679688 485.664062 L 198.824219 692.375 Z M 248.15625 1085.105469 "/>
<path style=" stroke:none;fill-rule:nonzero;fill:rgb(0%,68.238831%,93.728638%);fill-opacity:0.2;" d="M 248.15625 1085.105469 L 545.019531 997.046875 L 749.234375 607.851562 L 428.679688 485.664062 L 198.824219 692.375 Z M 248.15625 1085.105469 "/>
</g>
<g clip-path="url(#clip4)" clip-rule="nonzero">
<path style=" stroke:none;fill-rule:nonzero;fill:rgb(0%,68.238831%,93.728638%);fill-opacity:0.8;" d="M 87.4375 -193.351562 L -12.285156 -193.351562 L -12.285156 317.855469 L 159.929688 383.28125 Z M 87.4375 -193.351562 "/>
</g>
<g clip-path="url(#clip5)" clip-rule="nonzero">
<path style=" stroke:none;fill-rule:nonzero;fill:rgb(0%,68.238831%,93.728638%);fill-opacity:0.749;" d="M 428.679688 485.664062 L 159.929688 383.28125 L 198.824219 692.375 Z M 428.679688 485.664062 "/>
</g>
<g clip-path="url(#clip6)" clip-rule="nonzero">
<path style=" stroke:none;fill-rule:nonzero;fill:rgb(0%,68.238831%,93.728638%);fill-opacity:0.6;" d="M 749.234375 607.851562 L 1068.375 -0.433594 L 1068.375 -89.554688 L 428.679688 485.664062 Z M 749.234375 607.851562 "/>
</g>
<g clip-path="url(#clip7)" clip-rule="nonzero">
<path style=" stroke:none;fill-rule:nonzero;fill:rgb(0%,68.238831%,93.728638%);fill-opacity:0.6;" d="M 1068.375 729.507812 L 1068.375 -0.433594 L 749.234375 607.851562 Z M 1068.375 729.507812 "/>
<path style=" stroke:none;fill-rule:nonzero;fill:rgb(92.549133%,0%,54.899597%);fill-opacity:0.2;" d="M 1068.375 729.507812 L 1068.375 -0.433594 L 749.234375 607.851562 Z M 1068.375 729.507812 "/>
</g>
<g clip-path="url(#clip8)" clip-rule="nonzero">
<path style=" stroke:none;fill-rule:nonzero;fill:rgb(0%,68.238831%,93.728638%);fill-opacity:0.698;" d="M 87.4375 -193.351562 L 159.929688 383.28125 L 428.679688 485.664062 L 1068.375 -89.554688 L 1068.375 -193.351562 Z M 87.4375 -193.351562 "/>
</g>
</g>
</svg>
