<?xml version="1.0" encoding="UTF-8"?>
<svg xmlns="http://www.w3.org/2000/svg" xmlns:xlink="http://www.w3.org/1999/xlink" width="1012.5pt" height="487.499991pt" viewBox="0 0 1012.5 487.499991" version="1.2">
<defs>
<clipPath id="clip1">
  <path d="M 161 1 L 868.855469 1 L 868.855469 484 L 161 484 Z M 161 1 "/>
</clipPath>
</defs>
<g id="surface1">
<g clip-path="url(#clip1)" clip-rule="nonzero">
<path style=" stroke:none;fill-rule:nonzero;fill:rgb(0%,0%,0%);fill-opacity:1;" d="M 868.855469 192.324219 C 868.855469 197.945312 868.707031 205.191406 865.898438 210.21875 C 862.945312 215.691406 856.738281 219.984375 851.417969 222.941406 C 844.324219 226.785156 837.378906 226.046875 829.695312 225.605469 C 821.714844 225.160156 813.734375 224.863281 805.902344 224.421875 C 797.628906 223.976562 789.351562 223.53125 781.078125 223.089844 C 775.757812 222.792969 772.0625 223.53125 770.585938 217.765625 C 768.664062 210.8125 768.8125 203.269531 769.253906 196.167969 C 769.402344 192.617188 769.699219 189.070312 770.585938 185.519531 C 771.324219 182.265625 772.800781 179.453125 771.765625 176.199219 C 766.003906 178.863281 766.300781 191.289062 766.152344 196.90625 C 765.855469 205.488281 765.707031 214.214844 768.8125 222.347656 C 750.488281 222.347656 732.164062 220.574219 713.988281 219.6875 C 704.53125 219.242188 695.070312 218.800781 685.761719 218.207031 C 680.886719 217.910156 675.859375 217.765625 670.984375 217.46875 C 668.769531 217.320312 665.222656 217.765625 663.449219 215.988281 C 659.605469 212.292969 660.492188 201.789062 660.640625 197.054688 C 660.789062 193.0625 661.230469 189.070312 662.117188 185.222656 C 662.414062 183.59375 666.109375 175.3125 664.925781 174.128906 C 661.230469 170.28125 658.128906 189.957031 657.832031 192.324219 C 657.09375 200.753906 657.390625 208.890625 660.195312 216.875 C 639.359375 215.839844 618.375 214.65625 597.539062 213.621094 C 587.492188 213.179688 577.148438 211.847656 567.097656 211.996094 C 563.402344 212.144531 559.855469 212.734375 556.457031 214.214844 C 555.425781 214.65625 547.148438 219.09375 549.808594 221.3125 C 551.582031 222.792969 555.128906 218.355469 556.457031 217.617188 C 560.890625 214.953125 565.324219 215.25 570.347656 215.398438 C 580.839844 215.839844 591.332031 216.582031 601.824219 217.171875 C 623.402344 218.355469 644.828125 219.390625 666.402344 220.574219 C 709.554688 222.792969 752.554688 225.011719 795.707031 227.230469 C 801.027344 227.527344 806.199219 227.824219 811.519531 227.96875 C 814.621094 228.117188 823.933594 227.082031 826.296875 229.003906 C 831.617188 233.148438 827.183594 247.496094 824.964844 252.671875 C 821.714844 260.214844 808.5625 263.914062 801.320312 266.132812 C 791.71875 268.941406 781.371094 271.605469 771.324219 272.34375 C 765.855469 272.789062 760.242188 272.789062 754.773438 272.640625 C 749.601562 272.492188 747.382812 272.34375 744.578125 268.054688 C 739.257812 260.066406 735.5625 251.191406 736.003906 241.28125 C 736.152344 239.210938 738.8125 231.667969 736.152344 230.929688 C 732.753906 229.894531 732.753906 243.058594 732.902344 244.832031 C 733.492188 255.925781 738.519531 264.503906 744.578125 273.527344 C 735.859375 274.269531 727.285156 274.5625 718.714844 276.191406 C 710.292969 277.816406 702.015625 280.035156 693.59375 281.664062 C 685.171875 283.289062 676.453125 284.472656 667.734375 285.214844 C 663.152344 285.65625 662.5625 285.066406 660.34375 280.628906 C 658.570312 276.929688 657.09375 273.085938 655.910156 269.089844 C 653.992188 261.84375 653.398438 254.300781 654.136719 246.753906 C 654.433594 244.535156 657.535156 237.289062 656.503906 235.367188 C 654.285156 231.078125 652.070312 239.953125 651.773438 240.839844 C 648.078125 256.519531 652.511719 271.902344 659.457031 285.804688 C 617.488281 287.726562 575.523438 291.128906 533.40625 292.460938 C 513.75 293.054688 494.246094 293.792969 474.738281 295.417969 C 455.085938 297.195312 435.429688 298.675781 415.777344 300.152344 C 418.585938 295.566406 424.9375 291.277344 429.667969 288.761719 C 430.996094 288.023438 436.167969 286.988281 436.464844 285.65625 C 437.351562 282.253906 433.804688 283.585938 432.328125 284.179688 C 426.417969 286.25 421.246094 290.242188 416.8125 294.382812 C 411.640625 299.117188 411.195312 304.292969 414.003906 310.804688 C 419.324219 323.078125 427.304688 330.476562 437.648438 338.464844 C 448.140625 346.597656 455.378906 357.691406 463.359375 368.195312 C 458.1875 371.597656 454.347656 375.441406 450.945312 380.765625 C 449.765625 382.542969 443.261719 393.042969 446.660156 394.078125 C 448.878906 394.671875 452.867188 383.578125 454.347656 381.507812 C 457.300781 376.921875 461.734375 370.855469 467.644531 370.414062 C 472.523438 369.96875 479.46875 374.257812 483.605469 376.476562 C 489.960938 379.730469 495.574219 384.167969 501.339844 388.457031 C 511.832031 396.296875 519.367188 405.023438 526.902344 415.972656 C 542.714844 438.75 534.882812 464.191406 532.371094 469.074219 C 530.597656 472.621094 525.277344 483.421875 520.550781 483.714844 C 516.410156 484.011719 509.613281 473.804688 506.363281 471.144531 C 501.339844 467.003906 495.722656 463.453125 490.109375 460.050781 C 484.933594 456.796875 479.617188 454.429688 473.558594 453.691406 C 470.898438 453.394531 468.238281 453.542969 465.722656 453.691406 C 462.03125 453.984375 459.519531 452.800781 455.972656 451.617188 C 444.148438 447.625 433.066406 443.632812 421.835938 437.863281 C 410.308594 431.945312 402.328125 422.035156 392.429688 414.046875 C 383.117188 406.503906 374.546875 398.074219 364.351562 391.566406 C 353.269531 384.613281 342.332031 377.511719 331.398438 370.117188 C 310.414062 355.917969 292.679688 337.574219 272.285156 322.488281 C 266.96875 318.640625 261.792969 314.648438 256.769531 310.359375 C 252.042969 306.367188 248.050781 301.632812 243.175781 297.933594 C 233.570312 290.539062 224.40625 281.960938 213.621094 276.339844 C 202.242188 270.421875 191.011719 264.0625 179.632812 257.847656 C 173.425781 254.445312 168.84375 253.265625 168.546875 245.71875 C 168.253906 238.769531 168.84375 232.113281 168.84375 225.308594 C 168.992188 211.847656 168.695312 198.238281 168.105469 184.777344 C 167.808594 178.417969 167.957031 172.058594 167.367188 165.84375 C 166.628906 158.597656 163.96875 151.792969 163.523438 144.546875 C 162.636719 131.085938 161.898438 117.773438 161.75 104.3125 C 161.601562 90.554688 160.714844 76.800781 164.261719 63.488281 C 166.183594 56.386719 169.140625 56.535156 175.789062 55.5 C 182.585938 54.464844 189.238281 53.875 195.886719 52.246094 C 202.09375 50.765625 208.890625 49.4375 214.65625 46.921875 C 220.714844 44.257812 226.328125 40.414062 232.386719 37.601562 C 257.65625 25.917969 285.289062 18.816406 312.1875 12.308594 C 337.601562 6.097656 364.351562 0.476562 390.65625 2.25 C 417.253906 4.027344 443.855469 4.765625 470.304688 8.90625 C 484.046875 11.125 496.90625 15.5625 509.761719 20.59375 C 521.878906 25.324219 531.929688 29.46875 545.078125 29.320312 C 572.121094 28.726562 598.574219 35.089844 625.46875 36.417969 C 631.972656 36.714844 638.324219 35.976562 644.679688 37.160156 C 651.332031 38.488281 657.683594 41.152344 664.1875 43.074219 C 676.894531 47.070312 689.605469 50.324219 701.574219 56.238281 C 706.894531 58.902344 712.214844 60.972656 716.941406 64.523438 C 722.707031 68.960938 724.480469 75.023438 723.886719 82.273438 C 723.59375 86.859375 722.707031 92.480469 717.976562 94.699219 C 712.65625 97.359375 703.496094 94.402344 697.730469 94.105469 C 683.546875 93.367188 669.507812 92.480469 655.320312 92.035156 C 653.84375 92.035156 649.851562 92.628906 648.523438 91.59375 C 646.898438 90.261719 645.863281 84.789062 645.273438 83.011719 C 644.53125 80.203125 644.089844 77.242188 643.941406 74.285156 C 643.792969 71.179688 646.160156 65.707031 645.417969 63.339844 C 643.5 56.535156 640.839844 70.589844 640.691406 72.363281 C 640.542969 79.316406 642.464844 85.230469 644.53125 91.738281 C 632.5625 91.738281 620.59375 91.886719 608.625 91.445312 C 603.746094 91.296875 594.878906 92.480469 590.445312 90.261719 C 586.898438 88.484375 585.128906 81.828125 584.09375 78.28125 C 582.613281 73.546875 581.875 68.664062 582.023438 63.785156 C 582.171875 62.453125 583.355469 58.753906 581.726562 57.867188 C 579.808594 56.683594 579.511719 58.457031 579.066406 59.9375 C 576.113281 69.550781 581.726562 81.238281 585.128906 89.816406 C 572.269531 88.78125 559.5625 86.859375 546.851562 84.9375 C 541.386719 84.195312 535.769531 83.605469 530.449219 82.125 C 526.015625 80.941406 522.027344 76.800781 517.59375 77.390625 C 518.628906 83.605469 528.234375 85.230469 533.554688 86.265625 C 542.566406 87.894531 551.582031 88.929688 560.597656 90.261719 C 577.738281 92.773438 595.027344 94.402344 612.316406 94.847656 C 647.339844 95.734375 682.363281 95.289062 716.941406 100.320312 C 749.601562 105.050781 785.363281 105.347656 815.214844 121.175781 C 828.660156 128.273438 833.390625 140.699219 830.582031 155.195312 C 828.808594 164.21875 824.671875 162.589844 816.394531 162.148438 C 807.382812 161.703125 798.515625 161.113281 789.5 160.667969 C 784.917969 160.371094 780.191406 160.078125 775.609375 159.78125 C 772.652344 159.632812 767.039062 160.371094 764.820312 158.300781 C 762.015625 155.789062 761.71875 148.539062 761.570312 145.136719 C 761.421875 140.996094 761.570312 136.855469 762.605469 132.859375 C 763.046875 130.9375 766.59375 124.28125 762.902344 124.871094 C 760.386719 125.316406 759.796875 131.824219 759.5 133.746094 C 758.617188 137.742188 758.171875 141.734375 758.320312 145.878906 C 758.320312 150.609375 760.535156 154.308594 761.128906 158.746094 C 744.578125 158.746094 727.730469 156.96875 711.179688 155.933594 C 702.902344 155.492188 694.777344 155.046875 686.5 154.457031 C 682.511719 154.160156 678.519531 154.011719 674.53125 153.714844 C 671.574219 153.570312 664.628906 154.457031 662.117188 152.828125 C 657.242188 149.722656 657.683594 138.628906 657.832031 133.601562 C 657.832031 130.9375 660.9375 113.1875 659.457031 112.742188 C 655.320312 111.558594 655.171875 128.273438 655.023438 130.492188 C 654.433594 138.628906 655.171875 144.839844 657.683594 152.53125 C 642.757812 152.53125 627.539062 150.90625 612.613281 150.019531 C 597.097656 149.132812 581.726562 148.242188 566.359375 146.914062 C 563.257812 146.617188 560.300781 146.171875 557.492188 144.839844 C 556.015625 144.101562 551.285156 140.402344 549.511719 140.847656 C 544.191406 142.179688 560.152344 149.425781 562.074219 149.871094 C 568.578125 151.496094 575.667969 151.351562 582.320312 151.792969 C 590.152344 152.238281 598.132812 152.679688 605.964844 153.125 C 666.996094 156.527344 728.027344 160.078125 788.910156 163.921875 C 805.902344 164.957031 823.191406 165.253906 840.039062 167.175781 C 854.226562 169.988281 865.898438 178.863281 868.855469 192.324219 C 868.855469 192.617188 868.707031 191.582031 868.855469 192.324219 Z M 376.023438 171.613281 C 377.652344 183.300781 380.308594 195.578125 386.664062 205.636719 C 389.472656 210.074219 391.984375 214.65625 395.382812 218.800781 C 397.007812 220.722656 398.78125 222.347656 400.554688 224.125 C 402.328125 225.898438 405.875 230.632812 408.238281 231.371094 C 412.082031 232.554688 417.699219 227.378906 420.652344 225.160156 C 425.085938 221.90625 428.78125 218.355469 431.882812 213.769531 C 438.828125 204.007812 443.410156 195.28125 445.480469 183.300781 C 449.46875 160.964844 449.027344 132.710938 438.089844 112.152344 C 432.621094 101.945312 424.347656 93.21875 415.332031 86.117188 C 410.753906 82.570312 408.980469 81.238281 404.695312 85.527344 C 400.703125 89.519531 396.714844 93.367188 393.609375 97.953125 C 386.074219 108.75 380.902344 118.957031 378.390625 131.824219 C 375.582031 144.839844 376.023438 158.597656 376.023438 171.613281 C 376.46875 174.71875 376.023438 169.691406 376.023438 171.613281 Z M 379.867188 229.300781 C 374.992188 220.722656 368.488281 213.03125 364.203125 204.007812 C 360.066406 195.429688 357.40625 186.257812 355.925781 176.9375 C 352.675781 157.117188 354.746094 135.671875 362.132812 117.035156 C 363.90625 112.597656 365.679688 108.011719 367.75 103.574219 C 368.636719 101.648438 373.660156 95.140625 371.296875 94.253906 C 365.828125 92.332031 359.769531 113.039062 358.585938 116.441406 C 351.496094 135.820312 348.980469 156.082031 352.382812 176.644531 C 354.152344 187.589844 357.257812 197.648438 362.132812 207.410156 C 364.5 212.144531 367.304688 216.730469 370.410156 221.167969 C 372.476562 224.273438 375.136719 231.078125 379.867188 229.300781 C 379.421875 228.710938 376.617188 230.484375 379.867188 229.300781 Z M 462.917969 156.082031 C 462.621094 158.300781 488.039062 166.882812 489.960938 159.929688 C 492.324219 150.90625 466.019531 155.492188 462.917969 156.082031 C 462.769531 156.230469 465.871094 155.640625 462.917969 156.082031 Z M 478.875 185.8125 C 485.082031 183.742188 484.046875 180.339844 477.988281 178.417969 C 474 177.234375 465.28125 175.015625 461.585938 176.644531 C 464.097656 181.375 474.296875 184.039062 478.875 185.8125 C 480.207031 185.371094 476.214844 184.777344 478.875 185.8125 Z M 460.109375 135.226562 C 460.550781 136.855469 483.308594 138.480469 481.535156 131.527344 C 479.910156 124.875 462.324219 132.121094 460.109375 135.226562 C 460.109375 135.375 460.257812 134.929688 460.109375 135.226562 Z M 456.265625 196.316406 C 455.527344 197.945312 472.671875 211.402344 475.476562 205.339844 C 478.433594 198.980469 458.632812 196.761719 456.265625 196.316406 C 456.265625 196.464844 459.519531 196.90625 456.265625 196.316406 Z M 421.390625 76.949219 C 424.199219 77.246094 442.375 73.25 437.5 67.925781 C 433.363281 63.339844 423.902344 74.730469 421.390625 76.949219 C 422.722656 77.097656 425.53125 73.398438 421.390625 76.949219 Z M 451.980469 112.597656 C 453.015625 114.519531 472.816406 112.597656 470.453125 106.679688 C 468.382812 101.207031 454.9375 110.820312 451.980469 112.597656 C 452.128906 112.742188 453.753906 111.5625 451.980469 112.597656 Z M 439.863281 93.664062 C 442.96875 94.402344 457.300781 91.738281 455.972656 87.300781 C 453.902344 81.089844 441.339844 91 439.863281 93.664062 C 440.308594 93.8125 440.160156 93.21875 439.863281 93.664062 Z M 449.171875 214.953125 C 447.84375 218.207031 460.257812 227.675781 463.953125 225.160156 C 469.269531 221.3125 451.539062 215.691406 449.171875 214.953125 C 449.171875 215.101562 451.242188 215.546875 449.171875 214.953125 Z M 450.207031 237.289062 C 447.402344 232.851562 442.082031 228.265625 436.910156 226.640625 C 437.203125 229.746094 440.601562 233.296875 442.671875 235.660156 C 445.035156 238.769531 447.105469 240.097656 450.207031 237.289062 C 449.320312 235.957031 449.46875 238.027344 450.207031 237.289062 Z M 423.757812 238.027344 C 421.984375 239.804688 428.335938 249.566406 431.589844 248.679688 C 437.648438 246.902344 425.234375 239.210938 423.757812 238.027344 C 423.609375 238.175781 426.5625 240.246094 423.757812 238.027344 Z M 423.757812 238.027344 "/>
</g>
<path style=" stroke:none;fill-rule:nonzero;fill:rgb(0%,0%,0%);fill-opacity:1;" d="M 470.011719 457.535156 C 487.300781 460.492188 503.113281 471.441406 514.492188 484.753906 C 506.066406 486.972656 496.90625 479.132812 490.402344 474.546875 C 486.265625 471.441406 482.277344 468.039062 478.285156 464.785156 C 476.660156 463.304688 469.566406 459.308594 470.011719 457.535156 C 472.816406 457.980469 469.863281 457.832031 470.011719 457.535156 Z M 470.011719 457.535156 "/>
<path style=" stroke:none;fill-rule:nonzero;fill:rgb(0%,0%,0%);fill-opacity:1;" d="M 412.230469 187.589844 C 393.167969 188.328125 379.128906 174.425781 380.457031 155.492188 C 381.9375 136.261719 397.894531 123.542969 417.105469 126.648438 C 431.589844 129.015625 442.082031 139.960938 445.183594 154.160156 C 449.46875 173.980469 429.816406 187.589844 412.230469 187.589844 C 404.398438 187.886719 418.878906 187.589844 412.230469 187.589844 Z M 411.492188 152.535156 C 405.578125 152.386719 403.953125 161.703125 411.640625 161.703125 C 418.289062 161.703125 418.140625 152.535156 411.492188 152.535156 Z M 411.492188 152.535156 "/>
</g>
</svg>
